<svg xmlns="http://www.w3.org/2000/svg" width="698" height="420"
     viewBox="0 150 698 420" fill="none">
  <path
    d="M361.555 309.49C361.458 309.49 361.388 309.49 361.277 309.462C361.194 309.448 361.125 309.462 361.083 309.531C361.111 309.545 361.125 309.587 361.152 309.601C361.319 309.67 361.458 309.615 361.555 309.504V309.49Z"
    fill="#001529"></path>
  <path
    d="M550.534 285.583C553.81 283.778 556.892 281.654 560.169 279.835C564.486 277.447 568.582 274.698 572.844 272.213C574.274 271.38 575.427 270.103 576.954 269.52C577.69 269.242 577.62 269.062 577.412 268.548C576.968 267.382 576.037 266.368 575.704 265.258C575.079 263.147 574.205 261.176 573.372 259.163C572.483 256.997 571.262 254.984 570.678 252.679C570.47 251.846 570.012 251.055 569.54 250.319C568.152 248.112 566.847 245.779 566.097 243.363C565.222 240.503 563.862 237.907 562.793 235.158C561.39 231.59 559.697 228.119 557.989 224.676C557.184 223.038 557.059 221.122 555.962 219.678C555.143 218.595 554.726 217.374 554.171 216.221C552.269 212.223 550.728 208.072 548.715 204.115C548.146 203.004 547.396 201.949 547.132 200.672C546.716 198.7 546.271 198.395 544.217 198.492C543.869 198.506 543.522 198.575 543.189 198.548C537.33 197.978 531.458 197.368 525.599 196.812C522.683 196.535 519.74 196.507 516.866 196.021C513.201 195.396 509.508 195.382 505.843 194.91C502.844 194.521 499.845 194.216 496.832 193.966C492.626 193.619 488.433 192.925 484.212 192.661C481.88 192.522 479.603 192.009 477.271 191.884C474.202 191.717 471.162 191.259 468.094 191.051C464.664 190.815 461.249 190.162 457.82 189.912C454.946 189.704 452.072 189.357 449.226 188.982C446.38 188.607 443.52 188.482 440.674 188.218C437.772 187.941 434.829 187.677 431.927 187.427C427.29 187.024 422.639 186.608 418.002 185.997C411.935 185.192 405.826 184.817 399.745 184.192C394.858 183.692 389.999 183.095 385.112 182.554C379.003 181.888 372.853 181.582 366.758 180.694C363.204 180.18 359.581 180.11 356.012 179.569C352.736 179.083 349.404 179.139 346.1 178.653C343.642 178.292 341.102 178.458 338.644 178.056C333.23 177.181 327.76 176.959 322.331 176.223C320.013 175.904 317.666 175.876 315.334 175.682C312.252 175.418 312.307 175.39 312.196 178.5C312.016 183.373 312.682 188.191 312.974 193.036C313.002 193.48 312.89 194.077 313.779 193.8C316.792 192.855 319.915 192.481 323.053 192.481C326.496 192.481 329.884 191.453 333.327 192.05C334.549 192.258 335.423 191.939 336.423 191.301C340.685 188.607 345.211 187.649 350.279 188.885C355.901 190.259 360.969 192.939 366.203 195.188C369.313 196.521 372.367 198.395 374.547 201.088C376.074 202.977 377.99 204.018 380.003 205.184C386.001 208.683 391.873 212.39 397.58 216.36C403.091 220.206 408.034 224.69 412.31 229.827C417.53 236.102 421.459 243.197 424.583 250.736C424.749 251.138 424.874 251.541 425.471 251.513C427.568 251.458 429.636 251.916 431.719 252.096C433.468 252.249 435.218 252.415 436.981 252.568C438.064 252.665 438.661 253.082 438.577 254.331C438.355 257.525 438.272 260.732 438.036 263.925C437.772 267.632 437.383 271.325 437.078 275.018C436.786 278.6 436.648 282.195 436.245 285.764C435.801 289.776 435.69 293.802 435.148 297.814C434.648 301.507 434.787 305.298 434.315 309.004C433.649 314.294 433.218 319.611 432.982 324.929C432.802 328.927 432.496 332.898 432.038 336.869C431.733 339.548 431.636 342.255 431.441 344.963C431.316 346.795 431.302 348.642 431.066 350.46C430.65 353.792 430.442 357.166 430.053 360.498C429.72 363.358 429.65 366.288 429.595 369.203C429.553 371.411 428.914 371.772 426.707 371.508C424.708 371.272 422.667 371.355 420.682 371.036C419.085 370.786 417.488 370.994 415.892 370.689C413.032 370.133 410.102 370.064 407.215 369.758C404.091 369.439 400.925 369.148 397.774 369.037C394.706 368.925 391.693 368.467 388.639 368.19C385.515 367.912 382.349 368.231 379.281 367.301C379.017 367.218 378.698 367.246 378.42 367.287C375.949 367.593 373.52 366.996 371.076 366.996C369.16 366.996 367.327 366.482 365.425 366.399C361.649 366.232 357.859 365.996 354.083 365.663C351.931 365.468 351.792 365.121 352.333 362.956C352.361 362.858 352.417 362.775 352.444 362.678C353.097 359.679 353.985 356.708 354.319 353.681C354.791 349.447 355.638 345.296 356.262 341.103C356.623 338.646 357.318 336.244 357.665 333.8C358.234 329.76 358.442 325.665 359.331 321.666C359.775 319.625 360.191 317.571 360.455 315.474C360.677 313.753 360.275 311.989 360.83 310.309C360.899 310.073 360.886 309.685 361.011 309.518C360.899 309.435 360.788 309.282 360.774 309.157C360.733 308.727 360.774 308.283 360.774 307.838C360.816 302.146 362.024 296.593 363.051 291.053C363.815 286.902 364.273 282.737 364.801 278.572C365.356 274.143 365.675 269.673 366.036 265.23C366.508 259.524 366.689 253.804 368.66 248.32C369.257 246.668 370.285 246.043 372.006 246.043C374.755 246.043 377.351 247.029 380.142 246.959C382.058 246.904 384.043 247.404 386.028 247.529C389.194 247.709 392.359 248.014 395.469 248.431C399.801 249.014 404.174 249.208 408.464 249.944C409.755 250.166 411.019 249.972 412.282 250.097C415.559 250.416 418.807 251.097 422.112 251.138C422.195 248.903 421.251 247.084 420.418 245.224C418.044 239.92 415.1 234.922 411.296 230.577C406.382 224.954 400.703 220.15 394.539 215.86C391.151 213.5 387.597 211.432 384.113 209.224C381.683 207.683 379.392 205.878 376.657 204.892C375.574 204.504 374.7 203.81 373.908 202.977C372.575 201.588 371.062 200.436 369.438 199.408C363.121 195.396 356.36 192.342 349.099 190.537C344.628 189.426 340.366 190.218 336.728 193.314C335.84 194.063 334.826 194.508 333.632 194.48C332.008 194.438 330.398 194.383 328.773 194.355C323.803 194.258 318.805 194.244 314.098 196.035C310.044 197.59 305.921 198.95 301.895 200.589C292.51 204.42 285.096 210.862 278.682 218.54C275.127 222.816 272.503 227.675 270.157 232.687C269.352 234.409 268.505 236.102 267.894 237.907C267.492 239.101 267.436 240.448 266.978 241.461C266.311 242.905 265.77 244.405 265.437 245.876C264.548 249.792 264.479 253.818 264.52 257.816C264.534 259.704 264.618 261.565 264.007 263.439C263.424 265.188 263.882 267.104 264.298 268.784C264.423 269.298 264.423 269.784 264.409 270.256H264.423C264.965 270.256 264.895 270.769 264.881 271.13C264.881 271.616 264.715 272.102 264.757 272.588C264.937 274.879 264.868 277.156 264.451 279.405C264.062 281.557 264.77 283.764 264.007 285.902C263.646 286.902 264.409 288.027 264.035 288.943C263.049 291.303 263.59 293.816 263.146 296.232C262.646 298.925 262.896 301.757 262.91 304.534C262.938 307.213 262.841 309.893 262.771 312.559C262.702 314.988 261.98 317.348 262.146 319.764C262.285 321.749 261.563 322.582 259.62 322.277C258.37 322.083 257.121 322.013 255.857 322.055C253.9 322.138 253.178 323.193 253.719 325.026C253.9 325.623 254.025 326.275 253.997 326.9C253.955 327.886 253.58 328.761 252.484 328.955C251.109 329.205 249.749 329.469 248.374 329.649C244.376 330.204 240.488 331.315 236.531 332.079C232.755 332.815 228.979 333.606 225.216 334.494C221.968 335.258 218.622 335.633 215.387 336.521C213.79 336.966 211.958 336.674 210.639 337.993C209.25 336.938 208.015 338.229 206.821 338.465C203.822 339.048 200.768 339.409 197.824 340.312C195.547 341.006 195.395 340.923 195.464 338.604C195.561 335.494 195.895 332.398 196.103 329.302C196.256 326.97 196.575 324.623 196.464 322.305C196.381 320.472 196.464 318.695 196.728 316.89C196.866 315.918 197.047 314.96 197.089 313.989C197.214 310.518 197.061 307.033 197.422 303.604C198.13 296.968 198.352 290.303 198.866 283.653C199.407 276.614 199.99 269.575 200.518 262.523C200.795 258.76 201.198 254.984 201.156 251.222C201.073 245.043 201.49 238.879 201.684 232.715C201.712 231.743 201.198 230.827 201.601 229.827C201.767 229.424 201.767 229.147 202.337 229.188C204.655 229.355 207.001 229.549 209.278 229.869C212.499 230.327 215.72 230.73 218.955 231.091C220.871 231.313 222.856 231.091 224.744 231.424C229.007 232.16 233.31 232.312 237.587 232.826C240.544 233.187 243.543 233.256 246.472 233.701C250.762 234.353 255.108 234.478 259.411 234.964C261.313 235.186 263.146 235.797 265.076 235.839C266.034 235.853 266.575 235.63 266.908 234.686C267.339 233.506 267.964 232.396 268.491 231.257C270.976 225.829 274.128 220.789 277.987 216.277C282.472 211.057 287.484 206.392 293.384 202.685C297.563 200.061 302.117 198.27 306.573 196.271C307.754 195.743 309.156 195.743 310.364 195.174C310.863 194.938 311.197 194.716 311.169 194.119C311.044 191.828 311.294 189.523 311.002 187.233C310.739 185.095 310.447 182.957 310.447 180.791C310.447 179.125 310.266 177.459 310.197 175.793C310.169 175.126 309.822 174.876 309.267 175.057C307.656 175.584 306.06 176.209 304.449 176.723C302.478 177.362 300.923 178.764 298.868 179.402C295.342 180.513 291.954 182.137 288.636 183.762C284.707 185.692 280.723 187.469 276.752 189.315C273.392 190.884 270.046 192.481 266.645 193.98C265.881 194.327 265.59 195.368 264.951 195.396C263.632 195.452 262.591 195.951 261.466 196.521C260.536 196.993 259.522 197.659 258.62 197.812C256.551 198.159 254.969 199.436 253.122 200.158C249.485 201.602 246.083 203.671 242.487 205.226C238.878 206.794 235.254 208.336 231.672 209.974C229.159 211.126 226.744 212.473 224.147 213.514C221.746 214.486 219.372 215.694 217.039 216.902C212.763 219.123 208.348 221.094 203.961 223.108C202.503 223.774 201.059 224.607 199.56 225.023C198.435 225.329 197.935 225.829 197.672 226.703C196.866 229.438 196.63 232.284 195.77 235.033C194.923 237.713 194.812 240.615 194.118 243.35C192.91 248.084 191.924 252.874 190.91 257.65C190.175 261.134 189.467 264.633 188.62 268.076C187.495 272.658 186.454 277.267 185.329 281.848C184.094 286.888 183.275 292.039 181.983 297.079C181.331 299.633 181.081 302.299 180.234 304.77C179.415 307.186 180.123 309.935 178.429 312.114C178.304 312.281 178.388 312.6 178.346 312.836C178.082 314.516 177.929 316.238 177.499 317.89C176.402 322.041 175.111 326.137 174.472 330.399C174.347 331.204 174.403 331.94 175.125 332.315C175.944 332.731 176.708 332.259 177.138 331.579C177.43 331.107 177.763 330.704 178.235 330.801C179.179 330.982 179.762 330.399 180.415 329.968C183.858 327.747 187.898 326.706 191.355 324.498C191.827 324.193 192.576 323.651 192.937 324.096C193.326 324.568 193.465 325.359 193.229 326.151C192.91 327.206 192.632 328.344 192.688 329.441C192.84 333.259 192.243 337.035 192.188 340.839C192.188 341.478 191.841 341.839 191.146 342.033C189.244 342.575 187.287 342.533 185.357 342.783C184.149 342.936 183.08 342.922 181.997 342.033C180.859 341.103 179.387 341.631 178.707 342.88C177.818 344.504 177.457 344.616 175.68 343.783C173.75 342.894 172.945 343.366 172.931 345.476C172.931 346.157 172.917 346.545 172.057 346.809C170.543 347.281 169.058 346.906 167.6 346.851C163.935 346.712 160.27 346.268 156.618 345.893C154.952 345.726 153.286 345.49 151.634 345.171C148.857 344.643 146.164 343.88 143.512 342.825C140.208 341.506 136.682 340.728 133.294 339.631C131.35 339.007 129.393 338.562 127.352 338.382C126.616 338.312 126.227 338.632 125.797 339.187C125.089 340.103 125.2 341.242 124.756 342.214C123.451 345.046 122.521 348.017 121.118 350.808C119.73 353.57 118.744 356.528 117.398 359.318C115.662 362.9 113.746 366.385 111.816 369.883C110.234 372.771 108.47 375.576 106.985 378.519C105.319 381.837 103.153 384.836 101.39 388.071C101.043 388.709 101.279 389.57 100.501 390.028C98.8493 391 98.766 392.902 98.0718 394.443C97.7802 395.082 98.4466 395.54 98.8215 395.915C99.2658 396.345 99.599 395.748 99.9322 395.526C102.626 393.61 105.027 391.347 107.054 388.751C108.318 387.127 110.775 386.752 111.344 384.461C111.358 384.392 111.608 384.364 111.747 384.35C112.747 384.308 113.399 383.572 114.121 383.073C117.522 380.685 121.104 378.616 124.825 376.77C125.714 376.325 125.978 375.812 125.686 374.937C125.186 373.451 124.659 371.98 124.173 370.494C124.02 370.036 123.395 369.467 124.075 369.092C124.784 368.703 125.075 369.453 125.367 369.925C126.241 371.355 126.561 373.007 127.047 374.59C127.158 374.951 127.074 375.409 127.685 375.367C129.115 375.284 130.115 373.979 129.726 372.563C129.282 370.966 128.768 369.397 128.254 367.829C128.129 367.44 127.963 366.94 128.338 366.774C128.81 366.551 129.032 367.037 129.254 367.426C130.031 368.842 130.49 370.369 130.92 371.924C131.045 372.396 130.601 373.771 132.1 373.299C134.03 372.702 134.377 372.313 134.016 370.966C133.586 369.356 132.85 367.87 132.225 366.329C132.045 365.871 131.489 365.274 132.294 364.969C132.975 364.719 133.169 365.427 133.35 365.913C133.947 367.398 134.655 368.856 134.988 370.439C135.224 371.563 135.71 371.91 136.89 371.466C139.375 370.536 141.916 369.772 144.526 369.245C145.248 369.092 145.789 368.467 146.581 368.523C151.454 368.842 156.355 368.898 161.228 369.3C163.06 369.453 164.893 369.828 166.781 369.578C167.85 369.439 169.086 369.578 170.085 369.994C170.988 370.369 169.946 371.438 170.335 372.146C170.377 372.23 170.446 372.313 170.46 372.41C170.821 375.52 172.695 377.936 174.209 380.504C174.958 381.768 175.93 381.74 177.027 380.796C177.721 380.199 178.124 379.421 178.707 378.769C179.915 377.38 180.317 377.311 181.831 378.227C182.289 378.505 182.747 378.797 183.205 379.06C184.663 379.893 185.51 379.838 186.398 378.422C187.426 376.77 188.717 375.978 190.674 376.075C192.771 376.173 194.853 375.617 196.977 375.77C197.547 375.812 198.005 375.826 198.019 376.631C198.047 380.282 198.283 383.947 198.13 387.585C197.977 391.195 198.574 394.763 198.324 398.386C198.116 401.385 198.491 404.439 198.366 407.41C198.227 410.923 198.31 414.422 198.338 417.92C198.352 420.627 198.407 423.376 198.338 426.042C198.255 429.318 198.185 432.609 198.255 435.871C198.338 439.676 198.435 443.466 198.407 447.27C198.407 448.728 198.019 450.185 198.671 451.588C198.782 451.837 199.046 452.032 198.866 452.379C198.074 453.892 198.491 455.558 198.407 457.127C198.185 461.5 198.352 465.901 198.407 470.289C198.407 471.371 198.907 472.538 198.63 473.496C198.102 475.314 198.463 477.091 198.505 478.855C198.56 481.159 197.866 481.312 196.047 481.381C192.188 481.562 188.328 481.715 184.482 482.103C183.15 482.242 181.845 481.895 180.512 482.145C177.541 482.686 174.514 482.909 171.501 483.117C167.836 483.381 164.171 483.686 160.492 483.839C158.007 483.936 155.549 484.255 153.134 484.672C150.801 485.074 148.483 484.672 146.15 485.074C143.318 485.574 140.402 485.907 137.529 485.824C133.836 485.713 130.837 487.171 127.838 488.99C128.157 489.378 128.504 489.531 128.893 489.614C132.517 490.378 136.196 490.669 139.889 490.947C140.305 490.975 140.666 490.614 141.152 490.919C142.304 491.641 143.734 491.655 144.97 491.711C149.274 491.891 153.536 492.363 157.798 492.877C162.047 493.404 166.309 493.627 170.557 494.237C174.792 494.848 179.082 495.015 183.33 495.445C186.023 495.723 188.703 496.334 191.396 496.403C197.033 496.556 202.642 496.875 208.237 497.57C211.333 497.958 214.485 498.139 217.525 498.639C222.023 499.374 226.577 499.569 231.075 500.332C235.726 501.124 240.474 501.499 245.181 501.901C246.514 502.012 247.749 502.47 249.054 502.595C251.998 502.873 254.927 503.137 257.87 503.414C258.176 503.442 258.564 503.498 258.62 503.775C258.703 504.192 258.287 504.247 257.968 504.4C256.635 505.039 255.108 505.053 253.802 505.705C252.025 506.58 250.082 506.899 248.194 507.246C245.472 507.746 242.835 508.607 240.197 509.315C236.948 510.176 233.699 511.203 230.464 512.189C226.299 513.452 222.051 514.382 217.914 515.757C214.873 516.77 211.749 517.52 208.667 518.409C205.53 519.311 202.378 520.172 199.227 521.046C195.436 522.102 191.688 523.309 187.87 524.254C183.913 525.239 180.109 526.739 176.083 527.447C175.194 527.599 175.083 528.252 174.861 528.877C174.597 529.64 175.236 530.015 175.68 530.251C176.722 530.765 176.43 531.209 175.722 531.667C174.223 532.625 172.751 533.68 171.154 534.444C169.766 535.11 169.224 536.263 169.71 537.401C170.321 538.831 169.599 540.58 170.877 541.774C170.932 541.83 170.904 542.052 170.849 542.163C170.071 543.593 170.543 545.009 170.918 546.398C171.571 548.841 172.432 551.201 172.432 553.811C172.432 555.228 173.029 556.658 174.195 557.713C174.639 558.115 175.208 558.101 175.208 557.629C175.208 556.185 176.416 555.283 176.652 553.978C177.166 551.062 177.249 548.091 178.415 545.287C179.318 543.149 179.637 540.761 180.803 538.734C181.622 537.318 182.525 535.943 184.33 535.457C189.217 534.166 194.062 532.75 198.963 531.501C201.087 530.959 203.17 530.251 205.294 529.821C207.862 529.293 210.389 528.613 212.888 527.877C215.734 527.044 218.622 526.35 221.468 525.614C223.537 525.073 225.661 524.476 227.799 524.087C230.839 523.532 233.769 522.352 236.809 521.699C239.78 521.06 242.71 520.186 245.625 519.367C251.081 517.839 256.565 516.395 262.035 514.854C264.757 514.091 267.505 513.48 270.227 512.73C272.559 512.092 274.864 511.314 277.196 510.662C280.014 509.87 282.847 509.134 285.637 508.176C286.803 507.774 288.011 507.219 289.289 507.232C292.704 507.26 296.008 508.537 299.465 508.204C299.715 508.176 300.118 508.371 300.201 508.579C300.368 508.954 299.993 509.176 299.701 509.37C298.382 510.287 296.966 511.106 295.772 512.147C294.87 512.939 293.995 513.716 292.982 514.41C291.329 515.549 289.483 516.298 287.817 517.353C285.568 518.77 283.138 519.866 280.792 521.074C277.613 522.699 274.572 524.573 271.49 526.35C269.991 527.211 268.436 527.988 266.908 528.793C263.535 530.571 260.05 532.098 256.968 534.388C254.677 536.082 254.774 537.137 257.065 538.665C260.578 541.011 263.507 543.996 266.298 547.147C268.325 549.424 270.962 551.035 273.142 553.159C274.114 554.117 275.475 553.256 275.766 551.923C276.21 549.841 275.141 548.105 274.503 546.37C273.559 543.746 272.073 541.302 270.74 538.817C270.365 538.109 270.449 537.929 271.171 537.54C272.129 537.012 273.225 536.915 274.128 536.429C277.002 534.86 280.098 533.805 283.027 532.375C285.734 531.056 288.664 530.293 291.232 528.585C292.954 527.447 295.106 526.933 297.105 526.239C298.924 525.6 300.465 524.476 302.117 523.545C302.7 523.212 303.339 523.434 303.922 523.073C306.046 521.768 308.476 521.102 310.641 519.811C312.516 518.686 314.681 517.992 316.778 517.298C318.597 516.701 320.096 515.535 321.845 514.785C323.372 514.132 325.094 513.647 326.399 512.564C327.301 511.814 328.343 511.731 329.231 511.828C333.535 512.258 337.811 512.925 342.101 513.438C346.044 513.91 350.001 514.285 353.93 514.813C356.485 515.16 359.067 515.424 361.663 515.549C364.953 515.701 368.188 516.52 371.493 516.784C372.187 516.84 372.534 516.243 373.228 516.465C377.088 517.728 381.142 517.867 385.126 518.339C389.18 518.811 393.234 519.367 397.33 519.603C401.883 519.866 406.423 520.644 410.949 521.31C412.685 521.56 414.448 521.477 416.128 521.741C418.044 522.046 419.96 522.657 421.876 522.601C426.041 522.504 430.025 523.754 434.162 523.865C437.411 523.962 440.66 525.073 443.825 523.434C444.908 522.907 446.005 522.365 447.088 521.838C447.852 521.463 448.601 521.088 448.101 519.505C449.712 521.282 450.656 520.019 451.697 519.575C454.016 518.589 456.168 517.228 458.583 516.479V516.395H458.653C461.152 514.841 463.956 513.799 466.372 512.189C468.649 510.676 471.537 510.453 473.522 508.454C473.841 508.135 474.313 508.093 474.758 508.149C474.966 507.899 475.23 507.774 475.563 507.802C475.952 507.455 476.188 506.899 476.84 506.927C477.021 506.677 477.257 506.76 477.479 506.83C478.02 505.594 479.395 505.83 480.339 505.289C482.185 504.22 484.115 503.248 486.045 502.318C486.92 501.901 487.78 501.263 488.738 500.874C488.905 500.804 489.141 500.638 489.155 500.499C489.266 499.555 489.571 499.36 490.265 500.124C490.321 500.18 490.543 500.096 490.682 500.082C492.806 498.958 494.889 497.75 497.068 496.737C500.345 495.195 503.594 493.654 506.731 491.85C508.953 490.572 511.285 489.475 513.52 488.184C515.88 486.824 518.504 485.88 520.976 484.658C522.767 483.769 524.488 482.645 526.321 481.978C528.376 481.243 530.208 480.104 532.013 479.063C534.276 477.758 536.622 476.578 538.913 475.398C542.342 473.634 545.619 471.496 549.298 470.205C550.02 469.955 550.409 469.456 550.547 468.595C550.756 467.248 550.617 465.915 550.686 464.582C550.839 461.736 550.52 458.862 550.589 456.002C550.658 453.24 550.547 450.477 550.45 447.728C550.339 444.479 550.353 441.217 550.214 437.968C550.034 433.345 550.173 428.708 550.173 424.084C550.173 421.016 550.2 417.948 550.131 414.894C550.048 411.381 549.978 407.841 550.006 404.342C550.006 402.273 549.839 400.177 549.881 398.095C549.964 394.263 549.548 390.417 549.603 386.599C549.645 383.35 549.603 380.102 549.742 376.853C549.909 373.077 549.562 369.273 549.492 365.468C549.437 362.178 549.423 358.888 549.298 355.597C549.242 353.904 549.603 352.251 549.409 350.558C548.979 346.712 549.353 342.838 549.104 338.979C548.881 335.55 549.048 332.093 549.02 328.65C548.965 322.971 548.798 317.293 548.715 311.601C548.673 308.06 548.798 304.506 548.756 300.966C548.715 296.981 548.687 292.997 548.409 289.026C548.284 287.221 549.187 286.305 550.45 285.611L550.534 285.583ZM416.905 189.426C416.045 193.425 416.419 197.576 415.392 201.56C415.017 203.018 413.837 203.74 412.671 204.476C412.185 204.781 411.81 204.698 411.421 204.198C410.505 202.99 409.478 201.88 408.575 200.672C407.909 199.783 407.367 200.005 406.826 200.714C406.298 201.408 406.007 201.894 404.868 201.324C403.966 200.866 402.966 201.977 402.092 202.532C401.689 202.796 401.3 203.143 401.036 203.532C400.176 204.823 399.482 204.198 398.774 203.393C398.704 203.324 398.662 203.24 398.593 203.157C396.663 200.575 396.455 200.505 393.553 201.852C392.942 202.144 392.318 202.352 391.748 201.977C391.193 201.602 391.582 201.005 391.665 200.491C392.234 196.729 391.957 192.897 392.457 189.135C392.568 188.26 393.04 187.399 392.623 186.427C392.415 185.942 393.012 185.928 393.428 185.969C396.427 186.316 399.44 186.788 402.425 186.886C405.84 186.997 409.131 187.913 412.546 187.913C413.754 187.913 414.962 188.191 416.183 188.288C417.016 188.357 416.905 188.885 416.905 189.44V189.426ZM172.432 350.877C172.029 354.806 171.543 358.721 171.14 362.65C171.002 363.955 171.182 365.455 170.099 366.343C168.836 367.37 167.142 367.468 165.545 367.551C163.185 367.69 160.894 367.037 158.534 367.01C156.591 366.982 154.647 366.732 152.703 366.774C151.468 366.801 150.232 366.496 149.205 366.121C148.219 365.76 148.163 364.191 148.149 363.039C148.094 358.249 150.996 354.959 153.828 351.516C155.23 349.822 156.66 349.1 158.173 349.308C162.644 349.502 166.517 348.919 170.432 348.836C171.96 348.808 172.598 349.294 172.432 350.835V350.877ZM194.201 310.212C194.02 312.864 193.659 315.544 193.784 318.223C193.84 319.459 193.382 320.278 192.16 320.639C190.73 321.055 189.55 321.944 188.273 322.652C185.774 324.026 183.191 325.262 180.581 326.442C179.734 326.817 178.985 328.15 178.082 327.456C177.443 326.956 178.374 325.873 178.554 325.04C179.415 321.055 180.303 317.071 181.178 313.086C182.275 308.13 183.386 303.187 184.427 298.231C184.816 296.357 185.579 294.566 185.857 292.691C186.343 289.373 187.648 286.249 187.884 282.862C188.023 280.807 188.856 278.808 189.328 276.767C190.022 273.74 190.674 270.7 191.369 267.66C191.73 266.091 192.021 264.522 192.604 263.009C192.84 262.398 193.229 261.717 192.285 261.287C192.077 261.19 192.049 260.94 192.243 260.815C194.173 259.621 193.84 257.455 194.229 255.72C195.187 251.333 196.256 246.973 197.241 242.6C197.325 242.225 197.408 241.85 197.491 241.475C197.033 245.432 198.033 249.389 197.741 253.387C197.477 257.039 197.477 260.718 197.269 264.369C196.978 269.548 196.422 274.712 196.186 279.891C196.02 283.292 195.603 286.694 195.784 290.109C195.853 291.303 195.52 292.525 195.367 293.747C195.256 294.663 194.978 295.579 195.45 296.482C195.52 296.607 195.589 296.787 195.547 296.898C194.145 301.23 194.534 305.77 194.242 310.212H194.201ZM344.642 192.842C348.099 191.412 350.876 193.411 353.944 194.174C359.22 195.479 363.468 198.728 368.008 201.505C365.203 201.102 362.135 201.186 360.511 198.159C360.053 197.298 359.317 197.034 358.442 197.132C355.304 197.465 352.167 196.923 349.029 196.965C347.946 196.979 346.572 196.535 345.364 196.118C343.642 195.535 341.768 195.979 339.797 195.327C341.49 194.369 342.99 193.536 344.656 192.855L344.642 192.842ZM316.889 198.603C319.457 198.131 322.054 197.715 323.692 197.659C326.996 197.756 329.315 197.742 331.647 197.437C333.688 197.173 335.701 197.84 337.756 197.895C340.074 197.965 342.407 198.256 344.725 198.437C346.641 198.589 348.404 199.561 350.39 199.547C352.68 199.547 354.957 199.714 357.248 199.839C358.428 199.908 359.567 200.339 360.094 201.394C360.899 203.018 362.149 203.587 363.857 203.948C367.147 204.629 370.257 205.934 373.367 207.225C378.781 209.474 383.835 212.431 389.013 215.166C392.054 216.777 394.581 219.109 397.51 220.858C398.343 221.358 399.134 222.233 399.495 223.108C399.995 224.302 401.134 224.76 401.925 225.301C404.924 227.328 406.16 228.411 408.075 231.243C409.269 233.006 410.727 234.603 411.852 236.45C412.893 238.129 413.976 239.782 414.823 241.573C415.559 243.155 416.169 244.793 416.864 246.39C417.266 247.334 416.947 247.667 416.003 247.57C412.116 247.168 408.242 246.682 404.355 246.404C402.869 246.307 401.411 245.904 399.926 245.904C398.996 245.904 398.385 245.64 398.19 244.557C397.913 242.864 396.913 241.461 395.997 240.059C395.802 239.768 395.525 239.185 395.025 239.448C394.567 239.684 394.65 240.24 394.747 240.656C394.942 241.42 395.261 242.17 395.455 242.933C395.983 245.029 395.553 245.432 393.47 245.224C390.318 244.905 387.153 244.793 384.015 244.516C381.933 244.335 379.809 243.877 377.726 243.766C375.894 243.669 374.769 242.753 373.714 241.614C371.965 239.726 369.799 238.213 368.119 236.38C364.745 232.715 360.788 229.674 357.47 225.954C354.735 222.899 351.792 220.025 348.793 217.221C345.683 214.305 342.31 211.723 339.158 208.863C336.659 206.586 333.618 204.906 330.495 203.782C328.926 203.213 327.649 202.13 325.996 201.769C324.303 201.394 322.692 200.602 321.012 200.158C319.749 199.825 318.402 199.769 317.097 199.617C316.736 199.575 316.361 199.561 316.264 199.172C316.139 198.659 316.639 198.673 316.931 198.617L316.889 198.603ZM347.557 243.683C345.045 244.974 340.449 244.71 338.214 242.725C341.615 243.072 344.795 243.836 347.557 243.683ZM325.372 424.765C323.886 427.597 322.887 430.651 321.193 433.372C320.624 434.275 320.04 435.08 318.388 434.914C316.334 435.038 314.196 434.081 312.03 432.998C310.739 432.345 309.309 431.956 308.059 431.165C306.698 430.304 306.115 429.013 306.657 427.472C307.198 425.931 307.795 424.376 308.309 422.849C308.809 421.349 309.642 419.961 309.919 418.378C310.03 417.767 310.211 417.545 311.002 417.712C315.126 418.559 319.055 419.961 322.942 421.516C323.345 421.683 323.733 421.919 324.136 422.071C326.232 422.793 326.357 422.863 325.372 424.751V424.765ZM301.631 330.204C302.88 324.79 304.186 319.403 305.616 314.03C306.948 309.032 307.976 303.951 309.128 298.897C309.906 295.482 310.933 292.136 311.919 288.776C312.766 285.902 313.251 282.848 314.14 280.044C315.445 275.906 314.876 272.116 313.959 268.187C312.585 262.287 311.169 256.386 309.794 250.486C309.42 248.875 307.809 248.32 307.018 247.07C306.768 246.668 306.171 246.543 306.143 245.585C307.809 246.362 309.017 247.404 310.253 248.362C310.752 248.75 310.114 249.417 310.308 250.028C312.335 256.372 313.946 262.828 315.278 269.353C315.875 272.297 316.778 275.295 316.334 278.322C315.931 281.043 316.681 283.653 316.597 286.305C316.459 290.734 317.43 295.093 317.236 299.536C317.194 300.563 317.042 301.771 317.833 302.757C318.027 302.993 317.972 303.507 317.93 303.881C317.153 309.615 317.652 315.363 317.541 321.111C317.472 324.762 317.43 328.4 317.222 332.037C317.069 334.703 317.278 337.41 317.014 340.062C316.792 342.353 317.222 344.643 316.847 346.934C316.695 347.864 316.75 348.961 317.777 349.627C317.944 349.739 318.138 350.113 318.083 350.238C317.625 351.196 318.055 352.085 318.305 352.932C318.833 354.667 318.513 356.514 319.11 358.235C319.652 359.818 318.333 361.095 318.361 362.622C318.361 363.011 317.805 362.858 317.472 362.831C312.571 362.428 307.656 362.192 302.783 361.456C302.547 361.414 302.27 361.359 302.047 361.428C299.326 362.261 296.73 360.609 293.995 361.067C293.162 361.206 292.51 360.401 293.162 359.36C294.884 356.597 296.064 353.626 296.772 350.46C297.369 347.795 298.757 345.351 299.007 342.589C299.396 338.354 300.673 334.314 301.617 330.204H301.631ZM291.413 217.637C291.468 217.318 291.565 217.054 291.926 217.04C292.218 217.027 292.315 217.221 292.426 217.471C293.495 219.998 295.425 221.594 297.966 222.538C298.091 222.58 298.174 222.705 298.479 222.955C297.272 223.357 296.466 222.816 295.675 222.469C294.106 221.789 292.912 220.636 291.913 219.276C291.565 218.804 291.316 218.262 291.413 217.637V217.637ZM267.519 421.932C267.825 421.932 268.227 421.849 268.81 421.696C268.519 422.182 267.95 421.988 267.519 421.932ZM284.86 369.397C284.721 369.425 284.568 369.467 284.443 369.55C280.945 371.897 276.877 371.536 272.962 372.035C269.991 372.41 267.006 372.466 264.021 372.688C262.868 372.771 262.216 372.993 262.549 374.59C263.271 378.075 263.479 381.657 264.16 385.141C264.77 388.21 264.423 391.306 264.784 394.36C265.006 396.234 264.895 398.164 265.562 399.969C265.728 400.399 265.437 400.705 265.395 401.066C265.284 401.982 265.673 402.621 266.714 402.759C265.354 402.732 265.423 403.648 265.534 404.425C265.853 406.744 265.867 409.09 266.075 411.395C266.2 412.797 266.034 414.255 266.395 415.699C266.756 417.184 266.492 418.823 266.659 420.364C266.77 421.391 266.908 421.835 267.394 421.905C267.172 421.905 266.992 421.946 266.922 422.21C266.659 423.321 266.617 424.598 266.881 425.695C267.269 427.305 267.075 428.888 267.103 430.471C267.158 434.358 267.422 438.218 267.519 442.105C267.575 444.493 267.408 446.881 267.394 449.283C267.394 451.504 267.242 453.726 267.617 455.947C267.825 457.21 267.422 458.446 267.45 459.723C267.533 462.791 267.38 465.874 267.325 468.956C267.269 471.58 267.006 474.218 267.269 476.8C267.394 477.966 266.867 478.91 266.95 479.993C267.006 480.673 266.325 480.979 265.812 481.201C262.702 482.562 263.354 483.464 263.396 486.366C263.438 488.795 264.423 491.003 266.145 492.807C266.298 492.96 266.7 493.127 266.492 493.349C265.687 494.196 265.742 495.515 264.965 496.264C264.104 497.097 263.84 498 263.799 499.111C263.757 500.194 263.757 500.971 261.994 500.818C257.371 500.388 252.789 499.735 248.194 499.222C245.556 498.93 242.89 498.625 240.224 498.403C236.393 498.097 232.589 497.556 228.771 497.125C226.063 496.82 223.356 496.542 220.649 496.251C217.428 495.904 214.221 495.543 211 495.223C209.056 495.043 207.196 494.446 205.238 494.362C203.808 494.293 201.504 492.752 201.573 491.836C201.698 490.253 201.573 488.656 201.67 487.074C201.795 484.963 202.003 482.784 201.823 480.743C201.406 476.036 201.726 471.344 201.74 466.665C201.74 462.375 201.545 458.085 201.517 453.795C201.49 450.324 201.753 446.839 201.587 443.369C201.462 440.772 201.698 438.19 201.531 435.58C201.337 432.734 201.74 429.86 201.642 427.014C201.531 423.904 201.323 420.752 201.476 417.684C201.642 414.408 201.115 411.173 201.49 407.924C201.823 405.022 201.628 402.079 201.642 399.178C201.642 396.47 201.601 393.694 201.517 390.958C201.434 388.64 201.462 386.238 201.712 383.864C201.948 381.532 201.642 379.13 201.42 376.77C201.337 375.867 201.392 375.465 202.392 375.27C205.46 374.701 208.584 374.659 211.666 374.368C216.845 373.882 222.079 374.257 227.257 373.59C232.491 372.924 237.781 372.771 243.015 372.049C245.667 371.688 248.402 371.98 251.067 371.563C255.024 370.939 259.023 371.258 262.993 370.939C268.213 370.508 273.461 370.119 278.571 368.967C282.041 368.19 285.373 366.829 288.358 364.76C289.08 364.261 289.761 363.705 290.76 363.927C291.357 364.066 292.232 363.775 292.44 364.441C292.607 364.996 291.843 365.399 291.385 365.718C289.386 367.204 287.512 368.939 284.901 369.342L284.86 369.397ZM439.438 517.909C438.772 520.116 437.106 520.894 434.773 520.741C431.164 520.505 427.651 519.589 424.041 519.533C421.195 519.491 418.46 518.77 415.642 518.534C408.853 517.964 402.119 516.812 395.317 516.173C391.512 515.812 387.681 515.438 383.863 514.854C380.558 514.341 377.199 513.647 373.756 513.772C371.826 513.841 369.938 512.966 367.966 513.063C365.342 513.188 362.885 512.078 360.219 512.203C358.109 512.3 355.985 511.592 353.847 511.439C351.389 511.259 348.974 510.745 346.53 510.481C344.114 510.217 341.657 510.162 339.297 509.662C337.353 509.259 335.396 509.384 333.48 509.037C333.049 508.954 332.577 509.051 332.161 508.954C331.258 508.732 330.481 508.537 330.689 507.163C330.981 505.192 331.203 503.151 330.967 501.193C330.675 498.791 331.675 496.598 331.591 494.237C331.508 491.822 332.133 489.392 332.147 486.976C332.161 484.755 332.91 482.617 332.536 480.354C332.355 479.229 332.897 478.008 332.883 476.786C332.883 476.12 332.591 475.953 332.175 475.745C327.135 473.329 322.012 471.08 316.861 468.942C313.432 467.526 310.03 466.054 306.629 464.569C305.865 464.235 305.713 464.18 305.713 465.207C305.713 467.526 305.393 469.858 305.31 472.177C305.199 475.203 305.13 478.23 305.143 481.256C305.171 485.463 304.463 489.628 304.477 493.821C304.477 496.209 303.88 498.541 303.825 500.888C303.797 502.137 303.491 503.359 303.505 504.581C303.505 505.733 302.922 505.775 302.131 505.691C298.771 505.289 295.467 504.386 292.051 504.4C291.371 504.4 291.385 503.956 291.413 503.512C291.552 501.276 291.677 499.041 291.885 496.82C292.343 491.836 292.426 486.754 293.481 481.895C294.356 477.855 294.537 473.676 295.828 469.692C296.425 467.859 296.758 465.804 296.897 463.805C296.897 463.652 296.827 463.472 296.897 463.375C298.007 461.528 296.55 461.028 295.356 460.306C293.454 459.168 291.302 458.613 289.33 457.627C287.595 456.752 287.512 456.433 288.692 454.933C289.802 453.545 290.302 451.796 291.302 450.366C294.634 445.576 297.508 440.522 300.493 435.524C302.644 431.915 304.477 428.083 303.269 423.612C303.005 422.654 303.519 421.724 303.491 420.739C303.394 416.851 303.394 412.95 303.436 409.063C303.464 406.98 303.686 404.884 303.602 402.829C303.45 399.372 303.45 395.915 303.394 392.458C303.366 390.792 303.616 389.07 303.325 387.46C302.978 385.627 303.422 383.892 303.353 382.101C303.283 380.199 303.519 378.269 303.325 376.409C303.075 374.035 303.477 371.66 303.172 369.3C303.117 368.925 303.005 368.412 303.491 368.315C304.061 368.204 304.033 368.814 304.088 369.134C304.491 371.313 304.838 373.493 305.088 375.701C305.38 378.338 305.81 380.976 306.171 383.6C306.754 387.974 307.434 392.347 308.351 396.665C308.378 396.776 308.503 396.873 308.656 397.109C309.614 395.679 310.03 394.124 310.503 392.638C312.779 385.419 314.876 378.144 315.75 370.578C315.903 369.273 316.181 367.967 316.361 366.662C316.431 366.135 316.611 365.871 317.194 365.899C317.833 365.941 317.847 366.301 317.819 366.801C317.625 369.981 317.069 373.132 316.361 376.228C314.862 382.781 313.807 389.473 311.308 395.776C310.378 398.136 309.35 400.469 308.337 402.801C307.809 404.023 306.99 405.036 305.99 405.939C305.102 406.744 304.921 407.771 305.977 408.577C307.059 409.396 306.823 410.201 306.24 411.145C304.713 413.672 304.685 413.713 306.504 415.963C307.754 417.518 307.309 419.267 306.712 420.683C305.657 423.14 305.213 425.695 304.671 428.263C303.88 432.123 301.617 435.302 299.84 438.704C296.911 444.299 293.481 449.616 290.052 454.92C289.566 455.655 289.997 455.85 290.524 456.086C293.967 457.585 297.022 459.848 300.631 461.014C311.474 464.513 321.498 469.983 332.119 474.023C334.007 474.745 335.881 475.398 337.52 476.828C338.478 477.661 339.866 478.549 341.379 478.688C341.74 478.73 342.004 478.91 342.24 479.188C342.726 479.771 343.323 480.146 344.003 479.59C344.684 479.035 345.017 478.258 344.572 477.369C344.045 476.314 343.573 475.231 342.948 474.245C340.519 470.358 337.978 466.554 335.257 462.847C334.16 461.361 333.105 459.862 332.105 458.307C331.633 457.557 331.314 457.502 330.495 457.946C328.607 458.987 326.468 459.334 324.15 459.945C324.678 458.682 325.608 458.363 326.371 457.918C327.218 457.432 328.148 457.099 329.051 456.738C331.161 455.905 331.189 455.78 329.856 453.934C329.481 453.406 329.204 453.309 328.537 453.559C326.691 454.295 324.789 454.906 322.9 455.544C322.415 455.711 321.887 455.739 321.401 455.836C321.248 455.197 321.623 455.128 321.915 454.989C323.761 454.087 325.58 453.129 327.454 452.282C328.329 451.893 328.62 451.421 328.037 450.643C327.538 449.977 327.551 448.561 326.01 449.366C324.636 450.088 323.178 450.643 321.734 451.213C321.387 451.352 320.901 451.935 320.61 451.338C320.388 450.866 321.04 450.671 321.401 450.463C322.706 449.699 323.983 448.88 325.33 448.2C326.066 447.839 326.371 447.534 325.996 446.687C324.691 443.841 324.233 440.883 324.136 437.732C324.081 436.066 324.428 434.705 325.025 433.317C326.066 430.901 327.232 428.527 328.343 426.125C328.426 425.945 328.607 425.764 328.593 425.598C328.44 423.39 329.87 423.696 331.258 423.862C331.786 423.932 332.341 423.932 332.883 423.89C334.118 423.807 334.91 423.279 334.868 421.891C334.826 420.322 334.854 418.753 334.785 417.184C334.757 416.532 334.882 416.018 335.493 415.713C337.381 414.755 338.047 412.936 338.63 411.117C340.283 405.911 342.032 400.732 343.462 395.485C344.684 391 346.738 386.793 347.696 382.24C348.64 377.797 350.653 373.66 351.473 369.175C351.667 368.148 353.028 368.273 353.555 368.509C354.707 369.009 355.846 368.856 356.984 368.967C362.607 369.522 368.244 369.842 373.88 370.3C377.851 370.619 381.863 370.605 385.82 371.258C387.681 371.563 389.624 371.494 391.526 371.494C392.915 371.494 394.248 371.758 395.608 371.883C399.204 372.188 402.841 372.216 406.423 372.646C409.63 373.035 412.837 373.299 416.031 373.215C418.363 373.16 420.529 373.701 422.778 373.937C424.611 374.146 426.513 374.396 428.415 374.09C429.331 373.937 430.317 373.743 431.191 373.923C432.816 374.257 432.885 373.313 432.621 372.285C432.135 370.397 433.163 368.676 433.024 366.843C432.982 366.329 433.399 366.052 433.94 366.204C435.231 366.565 436.55 366.593 437.869 366.579C438.675 366.579 438.938 366.982 438.786 367.69C438.633 368.398 438.688 369.037 439.147 369.633C439.23 369.731 439.466 369.856 439.272 370.092C438.216 371.313 438.758 372.813 438.8 374.118C438.952 379.768 438.8 385.433 438.883 391.083C438.924 394.374 438.924 397.706 438.827 401.024C438.716 404.759 438.758 408.521 438.924 412.283C439.022 414.56 438.799 416.865 438.897 419.156C439.105 423.973 438.897 428.791 439.022 433.608C439.091 436.26 439.147 438.94 439.119 441.605C439.077 444.715 439.258 447.839 439.188 450.949C439.077 456.308 439.355 461.653 439.077 467.012C438.966 469.136 439.383 471.246 439.285 473.398C439.036 478.73 439.563 484.075 439.285 489.42C439.16 491.961 439.369 494.529 439.369 497.084C439.369 500.041 439.327 503.012 439.535 505.969C439.646 507.552 439.424 509.107 439.716 510.731C439.938 511.981 439.563 513.508 439.313 514.882C439.119 515.937 439.73 516.909 439.438 517.895V517.909ZM547.299 466.526C547.146 467.554 546.618 468.275 545.73 468.428C543.384 468.845 541.731 470.663 539.566 471.399C537.705 472.038 536.109 473.204 534.29 473.982C532.471 474.759 530.611 475.648 528.903 476.772C526.64 478.258 523.974 479.035 521.656 480.493C520.504 481.215 520.032 480.882 519.976 479.549C519.837 475.134 519.865 470.691 519.49 466.29C519.226 463.222 519.004 460.154 518.782 457.085C518.754 456.655 518.824 456.114 518.254 456.016C517.782 455.933 517.644 456.433 517.394 456.724C516.769 457.46 516.519 458.432 515.742 459.112C513.867 460.765 512.368 460.542 511.549 458.168C510.98 456.488 509.605 455.239 509.3 453.448C509.258 453.156 508.953 452.823 508.689 452.657C508.342 452.434 508.064 451.921 507.578 452.073C507.023 452.24 507.231 452.809 507.148 453.212C506.62 455.836 506.495 458.529 505.551 461.084C504.996 462.583 504.482 462.778 503.26 461.764C502.677 461.292 502.247 460.723 501.983 460.001C501.844 459.626 501.511 459.362 501.053 459.432C500.623 459.487 500.345 459.737 500.234 460.168C499.637 462.528 497.749 464.055 496.485 465.999C495.985 466.762 494.194 466.762 493.403 466.165C493.098 465.943 492.792 465.582 492.376 465.818C491.959 466.04 492.043 466.526 492.056 466.887C492.084 469.553 492.14 472.218 492.209 474.884C492.306 478.688 492.306 482.492 492.584 486.296C492.764 488.92 492.515 491.586 493.195 494.182C493.25 494.404 493.237 494.834 493.153 494.862C491.876 495.265 491.029 496.501 489.627 496.681C489.21 496.737 488.822 496.986 488.433 497.195C484.379 499.277 480.367 501.457 476.215 503.373C473.328 504.706 470.495 506.205 467.802 507.885C466.747 508.551 465.553 508.635 464.526 509.273C463.373 509.981 462.138 510.578 460.93 511.217C460.888 511.245 460.833 511.231 460.791 511.245C459.514 511.703 458.806 512.966 457.098 513.091C456.015 513.161 454.599 514.369 453.335 515.049C451.364 516.118 449.226 516.881 447.338 518.075C446.074 518.867 444.992 518.978 443.7 518.492C443.312 518.353 442.895 518.159 442.853 517.77C442.673 516.09 442.173 514.48 442.451 512.716C442.742 510.912 442.493 509.037 442.548 507.191C442.659 503.97 442.548 500.735 442.395 497.542C442.243 494.293 442.298 491.03 442.368 487.809C442.437 484.63 442.034 481.465 442.243 478.299C442.298 477.536 442.437 476.73 441.937 475.925C441.812 475.731 442.409 474.787 442.368 474.106C442.229 472.107 442.048 470.108 442.409 468.123C442.437 467.984 442.493 467.803 442.423 467.692C441.535 465.887 442.479 464.027 442.256 462.181C442.034 460.32 442.132 458.39 442.256 456.502C442.52 452.323 442.423 448.131 442.243 443.966C441.937 437.093 442.465 430.235 442.215 423.39C441.937 416.004 442.284 408.632 441.937 401.246C441.757 397.373 442.187 393.471 441.951 389.612C441.798 387.071 442.215 384.586 442.048 382.059C441.882 379.435 441.896 376.783 441.882 374.146C441.84 369.023 442.007 363.886 441.882 358.749C441.757 353.876 442.02 348.989 441.784 344.13C441.562 339.687 441.59 335.244 441.673 330.829C441.784 325.678 441.562 320.528 441.673 315.363C441.757 311.739 441.757 308.06 441.423 304.423C441.34 303.451 441.659 302.507 441.507 301.521C442.576 302.438 442.354 303.701 442.729 304.77C443.603 307.325 444.242 309.962 445.033 312.559C445.936 315.502 446.894 318.404 447.657 321.388C448.365 324.137 449.504 326.803 450.573 329.441C451.156 330.899 452.933 331.44 454.349 330.746C455.751 330.052 457.112 329.288 458.486 328.538C458.736 328.4 458.972 328.219 459.236 328.094C461.305 327.108 461.777 327.331 462.387 329.496C462.637 330.385 462.887 331.287 463.151 332.176C463.637 333.786 464.914 334.772 466.261 335.48C467.622 336.202 468.691 334.925 469.662 334.272C472.37 332.426 475.299 331.01 478.034 329.219C480.464 327.622 483.102 326.345 485.531 324.734C487.753 323.263 490.21 322.11 492.376 320.611C494.389 319.209 496.624 318.265 498.623 316.918C501.497 315.002 504.593 313.461 507.495 311.615C511.59 309.018 515.755 306.561 519.921 304.09C522.1 302.799 524.224 301.396 526.46 300.175C527.931 299.369 529.75 298.8 530.597 297.079C533.318 296.995 534.734 294.482 537.053 293.594C539.302 292.747 541.162 291.164 543.286 290.067C544.827 289.262 544.73 289.443 544.994 291.095C545.424 293.719 544.328 296.343 545.133 298.911C545.758 300.91 544.98 302.854 545.063 304.853C545.188 307.699 545.091 310.573 545.202 313.419C545.369 317.598 545.161 321.763 545.286 325.928C545.411 329.871 545.494 333.814 545.619 337.757C545.799 343.366 545.535 348.975 545.772 354.584C545.896 357.708 545.591 360.845 545.841 363.955C545.994 365.899 546.132 367.856 546.021 369.758C545.841 372.868 546.493 375.95 546.063 379.074C545.869 380.449 546.063 381.893 546.146 383.309C546.452 387.779 546.063 392.264 546.327 396.748C546.521 400.038 546.452 403.37 546.493 406.688C546.521 408.951 546.563 411.256 546.674 413.533C546.785 416.212 546.979 418.961 546.632 421.655C546.396 423.529 547.021 425.334 546.827 427.18C546.521 429.957 547.104 432.734 546.813 435.538C546.66 436.94 546.896 438.37 546.924 439.787C546.993 443.591 547.09 447.395 547.118 451.185C547.146 455.156 547.618 459.112 547.243 463.083C547.132 464.235 547.521 465.388 547.34 466.582L547.299 466.526ZM547.701 283.709C547.438 284.153 546.993 284.375 546.355 284.389C545.286 283.723 544.897 284.57 544.314 285.375C543.536 286.43 543.009 286.222 542.481 285.042C540.551 280.696 539.121 276.115 535.97 272.366C535.178 271.422 534.929 270.034 534.387 268.854C533.735 267.41 533.207 267.285 532.221 268.52C531.444 269.492 530.875 270.603 529.736 268.895C529.472 268.493 529.042 268.617 528.709 268.895C528.348 269.214 528.445 269.562 528.667 269.95C529.375 271.158 530.764 271.047 531.819 271.561C532.18 271.727 532.318 271.061 532.513 270.742C532.666 270.506 532.707 270.117 533.082 270.159C533.387 270.2 533.512 270.52 533.623 270.797C534.804 274.018 536.775 276.85 538.233 279.919C538.871 281.279 539.232 282.792 539.954 284.153C540.135 284.5 540.329 284.833 540.551 285.153C541.482 286.402 541.384 287.082 540.107 287.888C534.831 291.178 529.583 294.524 524.224 297.689C522.517 298.703 520.851 299.786 519.101 300.744C518.157 301.271 517.88 300.938 517.477 300.036C516.616 298.148 516.255 296.093 515.186 294.246C514.659 293.344 514.52 292.067 514.145 290.984C513.229 288.374 512.41 285.722 511.535 283.098C511.313 282.445 511.035 281.848 510.494 281.362C510.147 281.057 510.105 280.641 510.619 280.432C510.924 280.307 511.341 279.946 511.549 280.613C511.799 281.404 512.632 281.543 513.173 282.001C513.715 282.459 514.381 282.529 514.811 281.876C515.172 281.349 515.214 280.821 514.312 280.641C514.006 280.571 513.701 279.905 514.145 279.752C515.325 279.349 515.158 278.322 515.311 277.503C515.658 275.531 515.936 273.56 516.144 271.575C516.241 270.603 516.602 270.533 517.38 270.894C518.338 271.325 518.99 272.144 519.865 272.699C520.434 273.06 520.837 273.893 521.753 273.296C522.072 273.088 522.142 273.491 522.128 273.699C521.975 275.545 523.627 275.143 524.516 275.462C525.418 275.781 525.946 274.879 526.057 274.074C526.279 272.588 527.529 271.228 526.529 269.575C526.293 269.201 526.862 269.27 527.112 269.228C527.626 269.131 527.792 268.77 527.612 268.354C527.362 267.757 526.987 268.159 526.668 268.354C526.113 268.673 525.849 269.242 525.738 269.784C525.557 270.658 525.224 271.464 524.891 272.283C524.141 274.088 524.197 274.032 522.628 272.838C520.837 271.477 519.379 269.659 517.074 268.992C515.88 268.645 515.228 268.923 515.436 270.103C515.631 271.186 514.673 271.589 514.492 272.449C514.048 274.685 513.867 276.961 513.548 279.211C513.409 280.155 513.062 280.127 512.41 279.821C512.187 279.724 511.965 279.613 511.743 279.544C510.119 279.072 509.786 279.419 510.063 281.029C510.216 281.862 510.646 282.695 510.244 283.584C510.174 283.75 510.133 284.084 510.216 284.139C512.049 285.5 510.73 287.666 511.604 289.373C512.479 291.095 512.535 293.233 513.104 295.135C513.728 297.231 514.437 299.3 515.256 301.313C515.631 302.243 515.658 302.854 514.77 303.396C513.562 304.131 512.368 304.895 511.16 305.631C507.689 307.727 504.316 309.976 500.872 312.059C496.18 314.905 491.529 317.848 486.725 320.528C482.949 322.638 479.395 325.095 475.605 327.178C472.911 328.663 470.343 330.329 467.705 331.898C466.858 332.398 466.511 332.134 466.275 331.315C465.497 328.497 464.706 325.665 463.748 322.916C462.776 320.097 462.151 317.196 461.138 314.391C460.458 312.503 459.888 310.504 459.416 308.505C458.903 306.242 457.917 304.076 457.278 301.854C456.668 299.744 456.015 297.648 455.418 295.537C454.363 291.845 453.28 288.165 452.211 284.472C451.545 282.195 450.809 279.919 450.239 277.614C449.948 276.42 449.462 275.309 449.101 274.157C448.31 271.561 447.56 268.951 446.88 266.327C446.047 263.175 444.867 260.135 443.923 257.011C443.423 255.373 442.909 253.748 442.145 252.207C441.826 251.569 441.854 251.138 442.492 250.736C444.533 249.431 446.408 247.931 448.629 246.807C451.045 245.585 453.53 244.474 455.946 243.28C458.222 242.17 460.666 241.267 463.026 240.24C464.498 239.601 466.067 239.323 467.288 238.004C467.774 237.477 469.121 237.435 470.023 237.019C472.522 235.853 475.105 234.881 477.604 233.673C482.282 231.424 487.169 229.577 491.82 227.286C495.874 225.287 500.012 223.496 504.135 221.705C508.203 219.942 512.285 218.207 516.255 216.249C521.142 213.847 526.251 211.904 531.138 209.516C534.665 207.794 538.524 206.794 541.829 204.601C543.217 203.671 544.217 204.282 545.119 205.351C546.771 207.336 548.493 209.28 549.353 211.793C549.603 212.528 549.812 213.278 550.117 214C551.894 218.151 553.796 222.247 555.212 226.537C555.24 226.634 555.24 226.773 555.309 226.814C557.475 228.272 556.934 230.868 557.892 232.826C558.419 233.909 558.877 235.02 559.433 236.061C560.668 238.407 561.293 241.017 562.543 243.308C563.723 245.488 564.57 247.806 565.583 250.041C567.471 254.179 569.151 258.413 570.831 262.648C571.47 264.272 572.761 265.549 573.08 267.354C573.205 268.034 573.15 268.298 572.608 268.604C569.332 270.436 566.25 272.616 562.82 274.24C560.821 275.184 559.016 276.531 557.142 277.711C554.796 279.183 552.519 280.779 550.034 282.015C549.145 282.459 548.271 282.834 547.743 283.737L547.701 283.709Z"
    fill="#001529"></path>
  <path
    d="M263.99 271.018C264.018 271.476 263.837 271.989 264.587 272.684C264.365 271.767 264.462 271.004 264.49 270.254C264.143 270.268 263.962 270.643 263.976 271.018H263.99Z"
    fill="#001529"></path>
  <path
    d="M362.733 307.757C362.344 308.229 361.775 308.576 361.65 309.242C361.636 309.34 361.595 309.423 361.539 309.492C362.844 309.631 362.455 308.437 362.733 307.757Z"
    fill="#001529"></path>
  <path
    d="M344.561 400.968C344.187 401.87 343.853 402.787 343.548 403.717C342.465 407.035 340.396 409.895 339.147 413.13C338.633 414.463 338.022 415.643 336.787 416.337C335.954 416.809 335.787 417.448 335.926 418.295C336.148 419.655 336.329 421.002 336.217 422.39C336.092 423.834 335.426 424.695 333.954 425.07C332.969 425.334 332.011 425.139 331.039 425.292C330.525 425.375 330.234 425.445 329.984 426.014C328.873 428.513 327.624 430.956 326.471 433.441C326.027 434.413 325.347 435.316 325.277 436.399C325.013 439.981 325.694 443.41 327.207 446.645C330.081 452.823 333.705 458.557 337.634 464.11C337.939 464.554 338.022 465.248 338.814 465.387C338.98 463.916 339.244 462.5 339.272 461.028C339.3 459.737 339.272 458.473 339.758 457.141C340.591 454.808 339.758 452.198 340.535 449.755C341.563 446.534 341.091 443.09 341.701 439.772C342.021 437.995 341.882 436.065 342.201 434.302C342.687 431.595 342.854 428.86 343.284 426.167C343.867 422.474 343.881 418.697 344.409 414.99C345.033 410.548 345.228 406.063 345.866 401.621C345.95 401.024 345.811 400.385 345.769 399.732C344.908 399.843 344.77 400.482 344.548 400.996L344.561 400.968ZM342.201 425.889C341.66 425.764 341.507 425.222 341.59 424.667C341.646 424.334 341.368 423.89 341.896 423.709C342.659 423.945 342.396 424.681 342.659 425.139C342.77 425.347 342.534 425.958 342.201 425.889Z"
    fill="#001529"></path>
  <path
    d="M372.133 224.813C372.466 223.731 373.327 222.786 373.077 221.537C372.952 220.954 372.466 220.773 372.119 221.148C371.592 221.704 371.259 222.439 370.828 223.092C370.856 223.828 371.078 224.328 371.536 224.744C371.744 224.925 372.036 225.077 372.133 224.8V224.813Z"
    fill="#001529"></path>
</svg>
